<?xml version="1.0" encoding="UTF-8"?>
<!DOCTYPE svg PUBLIC "-//W3C//DTD SVG 1.1//EN" "http://www.w3.org/Graphics/SVG/1.1/DTD/svg11.dtd">
<!-- Creator: CorelDRAW -->
<svg xmlns="http://www.w3.org/2000/svg" xml:space="preserve" width="141px" height="23px" style="shape-rendering:geometricPrecision; text-rendering:geometricPrecision; image-rendering:optimizeQuality; fill-rule:evenodd; clip-rule:evenodd"
viewBox="0 0 9.58949 1.56033"
 xmlns:xlink="http://www.w3.org/1999/xlink">
 <defs>
  <style type="text/css">
   <![CDATA[
    .fil0 {fill:#3ACABB}
    .fil1 {fill:black;fill-rule:nonzero}
   ]]>
  </style>
 </defs>
 <g id="Layer_x0020_1">
  <metadata id="CorelCorpID_0Corel-Layer"/>
  <path class="fil0" d="M0.736114 0.535661c-0.0779381,-0.0662359 -0.178922,-0.106219 -0.289221,-0.106219 -0.2468,0 -0.446893,0.200093 -0.446893,0.446893 0,0.2468 0.200093,0.446893 0.446893,0.446893 0.11923,0 0.227989,-0.0463215 0.308134,-0.122438 0.199349,-0.176407 0.398416,-0.351427 0.597893,-0.528501 0.0500169,-0.04704 0.117716,-0.0755258 0.191804,-0.0755258 0.154388,0 0.279571,0.125183 0.279571,0.279571 0,0.154388 -0.125183,0.279571 -0.279571,0.279571 -0.0731135,0 -0.139709,-0.0281008 -0.18952,-0.074063l-0.107014 -0.0926943 -0.126518 0.111839 0.133832 0.116022c0.0779381,0.0662615 0.178922,0.106219 0.289221,0.106219 0.2468,0 0.446893,-0.200093 0.446893,-0.446893 0,-0.2468 -0.200093,-0.446893 -0.446893,-0.446893 -0.11923,0 -0.227989,0.0463471 -0.308134,0.122438 -0.199349,0.176432 -0.398416,0.351453 -0.597893,0.528527 -0.0112403,0.0105474 -0.0233532,0.0201967 -0.0362616,0.0287681 -0.0444994,0.0296149 -0.0981091,0.0467321 -0.155543,0.0467321 -0.154388,0 -0.279571,-0.125183 -0.279571,-0.279571 0,-0.154388 0.125183,-0.279571 0.279571,-0.279571 0.0731135,0 0.139709,0.0281008 0.18952,0.074063l0.107014 0.0927199 0.126518 -0.111864 -0.133832 -0.116022z"/>
  <path class="fil1" d="M2.99509 1.53074l-0.183464 0 0 -1.02574 0.183464 0 0 1.02574zm-0.0927199 -1.21118c-0.0328741,0 -0.060821,-0.0108297 -0.0838406,-0.0325405 -0.0229939,-0.0217108 -0.0345166,-0.0509665 -0.0345166,-0.0877927 0,-0.0368006 0.0115226,-0.0660819 0.0345166,-0.087767 0.0230196,-0.0217108 0.0509665,-0.0325405 0.0838406,-0.0325405 0.0328741,0 0.060821,0.0108297 0.0838406,0.0325405 0.0230196,0.0216851 0.0345166,0.0509665 0.0345166,0.087767 0,0.0368262 -0.011497,0.0660819 -0.0345166,0.0877927 -0.0230196,0.0217108 -0.0509665,0.0325405 -0.0838406,0.0325405zm0.301821 0.534583l0.48721 0 0 0.171608 -0.48721 0 0 -0.171608zm1.02574 0.540486c0.199888,0 0.299845,-0.0683659 0.299845,-0.205149 0,-0.0420871 -0.00887935,-0.0779125 -0.0266381,-0.107502 -0.0177587,-0.0295893 -0.0417535,-0.0552265 -0.07201,-0.0769373 -0.0302309,-0.0216851 -0.0647731,-0.0404447 -0.10355,-0.0562017 -0.0388023,-0.0157827 -0.0798885,-0.0315653 -0.123284,-0.047348 -0.0499913,-0.0170915 -0.0973136,-0.0364926 -0.142044,-0.0582034 -0.0447047,-0.0216851 -0.083507,-0.047348 -0.116381,-0.0769373 -0.0328741,-0.0295893 -0.058845,-0.0647474 -0.0779125,-0.105526 -0.0190675,-0.0407526 -0.0286141,-0.0900767 -0.0286141,-0.147946 0,-0.119666 0.0407783,-0.213027 0.122309,-0.28011 0.0815309,-0.0670571 0.193986,-0.100598 0.337313,-0.100598 0.0828654,0 0.158135,0.00887935 0.225859,0.0266381 0.0677243,0.017733 0.117382,0.0371342 0.148947,0.0581777l-0.0611546 0.155851c-0.0276132,-0.0171171 -0.0687252,-0.033875 -0.123284,-0.0502992 -0.0545849,-0.0164499 -0.118024,-0.024662 -0.190367,-0.024662 -0.0368262,0 -0.0710092,0.00392642 -0.102574,0.0118306 -0.0315653,0.0078785 -0.0591786,0.0197347 -0.0828397,0.0355174 -0.0236868,0.015757 -0.0424207,0.0358254 -0.0562273,0.0601538 -0.0138066,0.0243284 -0.0207099,0.0529425 -0.0207099,0.0858166 0,0.0368006 0.00723693,0.0677243 0.0217108,0.0926943 0.0144482,0.0249956 0.0348502,0.0470144 0.0611289,0.0660819 0.0263044,0.0190675 0.0568946,0.0364926 0.0917447,0.0522753 0.0348502,0.0157827 0.0733188,0.0315653 0.11538,0.047348 0.0591786,0.0236612 0.11343,0.047348 0.162754,0.0710092 0.0492984,0.0236868 0.0920527,0.0519416 0.128212,0.0848158 0.036159,0.0328998 0.0641058,0.07201 0.0838406,0.117382 0.0197347,0.0453719 0.0295893,0.100265 0.0295893,0.164704 0,0.119692 -0.0437295,0.211744 -0.131189,0.276184 -0.0874334,0.0644395 -0.210743,0.0966464 -0.369853,0.0966464 -0.0539177,0 -0.103575,-0.00361846 -0.148922,-0.0108554 -0.0453719,-0.00723693 -0.0858166,-0.0157827 -0.121334,-0.0256372 -0.0354917,-0.00985454 -0.0660819,-0.0203763 -0.0917191,-0.0315653 -0.0256372,-0.0111633 -0.0457056,-0.0207099 -0.0601538,-0.0285884l0.0572025 -0.157827c0.0302309,0.0170915 0.07627,0.036159 0.138066,0.0572025 0.0618218,0.0210436 0.137425,0.0315653 0.22686,0.0315653zm0.662795 -0.374781c0,-0.0907439 0.0131651,-0.169991 0.0394438,-0.237715 0.0263044,-0.0677243 0.0611546,-0.123926 0.104551,-0.168656 0.0433959,-0.0447047 0.0933872,-0.0782461 0.149922,-0.100598 0.056561,-0.0223524 0.114405,-0.0335414 0.173584,-0.0335414 0.138092,0 0.243951,0.043088 0.317604,0.129213 0.0736268,0.0861502 0.110453,0.217313 0.110453,0.39354 0,0.0078785 0,0.0180923 0,0.0305645 0,0.0124978 -0.000641572,0.0240204 -0.00197604,0.0345166l-0.702239 0c0.00790416,0.106527 0.0388023,0.187416 0.0927199,0.242642 0.0539177,0.0552265 0.138066,0.0828397 0.252497,0.0828397 0.0644395,0 0.118665,-0.00556884 0.162728,-0.0167579 0.0440631,-0.011189 0.0772709,-0.0220187 0.0996232,-0.0325405l0.0256372 0.153849c-0.0223524,0.0118306 -0.0614882,0.0243284 -0.117356,0.0374934 -0.0558937,0.0131394 -0.119358,0.0197091 -0.190367,0.0197091 -0.0894351,0 -0.16668,-0.013473 -0.231787,-0.040419 -0.065081,-0.0269717 -0.118665,-0.0641315 -0.160752,-0.111454 -0.0420871,-0.047348 -0.0733188,-0.103575 -0.0936951,-0.168656 -0.020402,-0.0651067 -0.0305901,-0.136449 -0.0305901,-0.214028zm0.704215 -0.100598c0.00133447,-0.0828654 -0.0194011,-0.150923 -0.0621298,-0.204174 -0.0427287,-0.0532504 -0.101599,-0.0798885 -0.176535,-0.0798885 -0.0420871,0 -0.0792469,0.00821212 -0.111454,0.024662 -0.0322326,0.0164242 -0.0595122,0.0378014 -0.0818645,0.0641058 -0.0223524,0.0263044 -0.0397774,0.0565353 -0.0522753,0.0907439 -0.0124978,0.0341829 -0.0207099,0.0690331 -0.024662,0.104551l0.50892 0zm0.802863 0.479331c0.0433959,0 0.0818645,-0.000975189 0.11538,-0.00295123 0.0335414,-0.00197604 0.0614882,-0.0055945 0.0838406,-0.0108554l0 -0.305747c-0.0131394,-0.00659536 -0.0345166,-0.0121642 -0.0641058,-0.0167835 -0.0295893,-0.00459365 -0.0654146,-0.00690331 -0.107502,-0.00690331 -0.0276132,0 -0.0568689,0.00197604 -0.0877927,0.00592812 -0.0308981,0.00395208 -0.0591786,0.0121642 -0.0848158,0.024662 -0.0256372,0.0124978 -0.0470144,0.0295893 -0.0641058,0.0512744 -0.0170915,0.0217108 -0.0256372,0.0502992 -0.0256372,0.0858166 0,0.0657483 0.0210436,0.111454 0.063105,0.137091 0.0420871,0.0256372 0.0992896,0.0384686 0.171633,0.0384686zm-0.0157827 -0.919244c0.0736268,0 0.135782,0.00954659 0.186415,0.0286141 0.0506072,0.0190675 0.0913855,0.0460392 0.122284,0.0808637 0.0309238,0.0348502 0.0529425,0.0762957 0.0660819,0.124285 0.0131651,0.0479896 0.0197347,0.100932 0.0197347,0.158802l0 0.641084c-0.0157827,0.00264328 -0.0378014,0.00626174 -0.0660819,0.0108554 -0.0282805,0.00459365 -0.0601538,0.00887935 -0.0956712,0.0128314 -0.0355174,0.00392642 -0.073986,0.00754488 -0.115406,0.0108297 -0.0414199,0.00328485 -0.0825061,0.00495293 -0.123284,0.00495293 -0.0578698,0 -0.11112,-0.00592812 -0.159777,-0.0177587 -0.0486568,-0.0118306 -0.0907439,-0.0305901 -0.126236,-0.0562273 -0.0355174,-0.0256372 -0.0631307,-0.0595122 -0.0828654,-0.101599 -0.0197091,-0.0420614 -0.0295893,-0.0926943 -0.0295893,-0.151873 0,-0.056561 0.0115226,-0.105218 0.0345166,-0.14597 0.0230196,-0.0407783 0.0542513,-0.0736524 0.0937208,-0.0986481 0.0394438,-0.02497 0.0854573,-0.0433959 0.138066,-0.0552265 0.0526089,-0.0118306 0.107835,-0.0177587 0.165705,-0.0177587 0.0184003,0 0.0374678,0.00100085 0.0572025,0.00297689 0.0197347,0.00197604 0.0384686,0.00459365 0.0562273,0.0078785 0.017733,0.00328485 0.0332077,0.00626174 0.0463471,0.00887935 0.0131394,0.00261761 0.0223524,0.00459365 0.0276132,0.00592812l0 -0.0513001c0,-0.0302565 -0.00328485,-0.0601538 -0.00985454,-0.089743 -0.00656969,-0.0295893 -0.0184259,-0.0558937 -0.0355174,-0.0789133 -0.0170915,-0.0230196 -0.0404447,-0.0414199 -0.070034,-0.0552265 -0.0295636,-0.0138066 -0.0680323,-0.0207099 -0.11538,-0.0207099 -0.0604874,0 -0.11343,0.00426004 -0.158802,0.0128058 -0.0453719,0.00854573 -0.0792213,0.0174251 -0.101574,0.0266381l-0.0217108 -0.151899c0.0236612,-0.0105218 0.0631307,-0.0207099 0.118357,-0.0305645 0.0552265,-0.00985454 0.115072,-0.0148075 0.179512,-0.0148075zm1.07704 0.00395208c0.015757,0 0.0338493,0.00100085 0.0542256,0.00295123 0.020402,0.00197604 0.0404447,0.00461932 0.0601794,0.00790416 0.0197091,0.00328485 0.0378014,0.00656969 0.0542513,0.00985454 0.0164242,0.00328485 0.0285884,0.00626174 0.0364926,0.00887935l-0.0315653 0.159777c-0.0144739,-0.00526089 -0.0384686,-0.011497 -0.07201,-0.0187339 -0.0335414,-0.00723693 -0.0766037,-0.0108554 -0.129213,-0.0108554 -0.0341829,0 -0.0680323,0.00361846 -0.101574,0.0108554 -0.0335414,0.00723693 -0.0555601,0.0121642 -0.0660819,0.0148075l0 0.862016 -0.183464 0 0 -0.982349c0.0433959,-0.0157827 0.0973136,-0.0305901 0.161753,-0.0443968 0.0644395,-0.0138066 0.136783,-0.0207099 0.217005,-0.0207099zm0.828474 1.07112c-0.0828397,0 -0.155517,-0.0131394 -0.21798,-0.0394438 -0.0624634,-0.0263044 -0.115072,-0.0631307 -0.157801,-0.110453 -0.0427287,-0.047348 -0.0746276,-0.103575 -0.0956712,-0.168656 -0.0210436,-0.0651067 -0.0315653,-0.137117 -0.0315653,-0.216004 0,-0.0789133 0.0115226,-0.151231 0.0345166,-0.217005 0.0230196,-0.0657483 0.0555601,-0.122617 0.0976472,-0.170607 0.0420871,-0.0480152 0.0936951,-0.085483 0.15485,-0.112455 0.0611546,-0.026946 0.129213,-0.0404447 0.204174,-0.0404447 0.0460135,0 0.0920527,0.00395208 0.138066,0.0118562 0.0460392,0.0078785 0.0901023,0.0203763 0.132164,0.0374678l-0.0414199 0.155825c-0.0276132,-0.0131394 -0.0595122,-0.0236612 -0.0956712,-0.0315397 -0.036159,-0.00790416 -0.0746276,-0.0118562 -0.11538,-0.0118562 -0.102574,0 -0.181154,0.0322326 -0.235739,0.096672 -0.0545849,0.0644395 -0.0818645,0.158468 -0.0818645,0.282086 0,0.0552265 0.00626174,0.105859 0.0187339,0.151873 0.0124978,0.0460392 0.0322326,0.085483 0.0591786,0.118357 0.0269717,0.0328741 0.0614882,0.0582034 0.103575,0.0759621 0.0420871,0.017733 0.0933615,0.0266124 0.153849,0.0266124 0.0486568,0 0.0927199,-0.00459365 0.132164,-0.0138066 0.0394695,-0.00918731 0.0703676,-0.0190675 0.0927199,-0.0295893l0.0256372 0.153875c-0.0105218,0.00656969 -0.0256372,0.0128314 -0.0453719,0.0187339 -0.0197091,0.00592812 -0.0420614,0.011189 -0.0670571,0.0157827 -0.0249956,0.00459365 -0.051608,0.00854573 -0.0798885,0.0118306 -0.0282805,0.00328485 -0.0555601,0.00492727 -0.0818645,0.00492727zm0.471453 -0.0236612l0 -1.49917 0.183464 -0.0315653 0 0.524703c0.0341829,-0.0131394 0.0706755,-0.0233275 0.109478,-0.0305645 0.0388023,-0.00723693 0.0772452,-0.0108554 0.115406,-0.0108554 0.0815309,0 0.149255,0.0115226 0.203173,0.0345166 0.0539177,0.0230196 0.09698,0.0552522 0.129187,0.096672 0.0322326,0.0414199 0.0549185,0.0910518 0.0680579,0.148922 0.0131651,0.0578698 0.0197347,0.121642 0.0197347,0.191342l0 0.576003 -0.183464 0 0 -0.536559c0,-0.063105 -0.00426004,-0.117023 -0.0128058,-0.161753 -0.00854573,-0.0447047 -0.022686,-0.0808637 -0.0424207,-0.108477 -0.0197091,-0.0276132 -0.0460135,-0.0476816 -0.0788877,-0.0601794 -0.0328998,-0.0124722 -0.0736524,-0.0187339 -0.122309,-0.0187339 -0.0197347,0 -0.0401111,0.00130881 -0.0611546,0.00395208 -0.0210436,0.00261761 -0.0410862,0.0055945 -0.0601538,0.00887935 -0.0190675,0.00328485 -0.0361846,0.00690331 -0.0513001,0.0108554 -0.0151154,0.00392642 -0.0259708,0.00721127 -0.0325405,0.00985454l0 0.852161 -0.183464 0z"/>
 </g>
</svg>
